<?xml version="1.0" encoding="UTF-8" standalone="no"?>
<svg
   width="503"
   height="420"
   viewBox="0 0 503 420"
   fill="none"
   version="1.1"
   id="svg1"
   sodipodi:docname="player-page__intro__background__3.svg"
   xml:space="preserve"
   inkscape:version="1.3 (0e150ed, 2023-07-21)"
   xmlns:inkscape="http://www.inkscape.org/namespaces/inkscape"
   xmlns:sodipodi="http://sodipodi.sourceforge.net/DTD/sodipodi-0.dtd"
   xmlns="http://www.w3.org/2000/svg"
   xmlns:svg="http://www.w3.org/2000/svg"><defs
     id="defs1" /><sodipodi:namedview
     id="namedview1"
     pagecolor="#ffffff"
     bordercolor="#000000"
     borderopacity="0.25"
     inkscape:showpageshadow="2"
     inkscape:pageopacity="0.0"
     inkscape:pagecheckerboard="0"
     inkscape:deskcolor="#d1d1d1"
     inkscape:zoom="1.0110229"
     inkscape:cx="233.92151"
     inkscape:cy="216.11776"
     inkscape:window-width="1512"
     inkscape:window-height="916"
     inkscape:window-x="1920"
     inkscape:window-y="102"
     inkscape:window-maximized="0"
     inkscape:current-layer="svg1" /><g
     style="fill:none"
     id="g2"
     transform="matrix(1.0245958,0,0,1.0180041,3.3361094,-16.744035)"><path
       d="m 381.86511,141.14442 c -94.822,2.591 -60.526,-76.386305 -125.195,-75.340505 -66.725,-7.623 -113.393,-155.47 -209.913495,-1.4013 -158.050705,252.284805 45.9105,139.072805 68.434495,238.845805 50.227,222.489 326.052,36.558 349.727,-11.946 23.675,-48.504 11.769,-152.749 -83.053,-150.158 z"
       stroke="#ff922d"
       stroke-width="2.79037"
       id="path1-8"
       style="fill:none" /><path
       d="M 357.729,176.065 C 262.906,178.656 297.203,99.6786 232.533,100.724 165.809,93.1014 95.4373,-119.75 22.6202,99.323 c -65.1245,195.93 26.9601,123.311 72.8171,213.461 52.4877,103.185 326.9977,58.758 350.6737,10.254 23.675,-48.504 6.44,-149.564 -88.382,-146.973 z"
       fill="#ff922d"
       id="path1-5" /></g><path
     d="M 366.938,146.151 C 272.116,148.741 306.412,69.7645 241.743,70.8103 175.018,63.1873 131.98,-81.9828 31.8297,69.4089 -68.3206,220.801 99.7154,240.503 145.572,330.653 198.06,433.838 431.645,341.628 455.32,293.124 478.995,244.62 461.76,143.56 366.938,146.151 Z"
     fill="#161616"
     id="path1" /><g
     style="fill:none"
     id="g1"
     transform="translate(-32.200358,-37.068539)" /></svg>
