<svg xmlns="http://www.w3.org/2000/svg" xml:space="preserve" width="503" height="420" fill="none"><g style="fill:none"><path stroke="#ff922d" stroke-width="2.79" d="M381.865 141.144c-94.822 2.591-60.526-76.386-125.195-75.34-66.725-7.623-113.393-155.47-209.913-1.401-158.051 252.284 45.91 139.072 68.434 238.845 50.227 222.49 326.052 36.558 349.727-11.946 23.675-48.504 11.77-152.749-83.053-150.158z" style="fill:none" transform="matrix(.98426 0 0 .99442 25.524 9.79)"/><path fill="#ff922d" d="M377.623 184.872c-93.33 2.577-59.574-75.96-123.226-74.92-65.674-7.58-134.938-219.244-206.609-1.394-64.1 194.837 26.536 122.623 71.671 212.27 51.662 102.61 321.851 58.43 345.155 10.197 23.302-48.233 6.338-148.73-86.991-146.153z"/></g><path fill="#161616" d="M374.812 168.911c-91.089 2.53-58.143-74.617-120.266-73.595-64.098-7.447-105.442-149.254-201.65-1.37-96.208 147.886 65.213 167.131 109.265 255.193 50.421 100.794 274.811 10.72 297.554-36.66 22.743-47.38 6.186-146.099-84.903-143.568z" style="stroke-width:.968699"/></svg>